<svg width="27" height="26" viewBox="0 0 27 26" fill="none" xmlns="http://www.w3.org/2000/svg">
<path d="M26.4118 13.1773C26.4118 5.9027 20.4976 0 13.203 0C5.90843 0 0 5.9027 0 13.1773C0 18.959 3.72525 23.8644 8.90596 25.6456C9.22361 25.4208 9.58748 25.1384 9.58748 24.6657C9.58748 23.9394 9.57015 22.0775 9.57015 22.0775C9.57015 22.0775 8.99837 22.1755 8.17823 22.1755C6.11635 22.1755 5.46371 20.8727 5.1576 20.1407C4.75331 19.1895 4.22773 18.7399 3.67327 18.3825C3.33251 18.1635 3.25166 17.9041 3.65017 17.8291C5.47526 17.4891 5.94308 19.8813 7.16173 20.2675C8.03384 20.5384 9.14853 20.4231 9.70299 20.0657C9.77807 19.3336 10.3094 18.6996 10.7484 18.371C7.64688 18.077 5.81024 17.0048 4.85727 15.2871L4.75331 15.0968L4.51651 14.5492L4.4472 14.3532C4.14687 13.4828 4.01403 12.4856 4.01403 11.3673C4.01403 9.39013 4.6378 8.64077 5.46948 7.58589C4.83417 5.32626 5.70051 3.78718 5.70051 3.78718C5.70051 3.78718 7.04044 3.51049 9.57593 5.31473C10.9505 4.73253 14.6122 4.68066 16.3507 5.18216C17.4134 4.48467 19.3598 3.4932 20.1453 3.76989C20.3589 4.10998 20.8152 5.10145 20.4225 7.27462C20.6882 7.75306 22.0743 8.76758 22.0801 11.644C22.057 12.7046 21.9472 13.5981 21.7393 14.3532L21.6238 14.7395C21.6238 14.7395 21.5603 14.9239 21.4852 15.0968L21.4043 15.2871C20.486 17.2931 18.5974 18.0424 15.5537 18.3479C16.5413 18.9647 16.8243 19.7372 16.8243 21.8354C16.8243 23.9336 16.7954 24.2103 16.8012 24.6945C16.807 25.1211 17.1477 25.4266 17.4538 25.6571C22.6634 23.8933 26.4118 18.9705 26.4118 13.1773Z" fill="#10112D"/>
</svg>
